<?xml version="1.0" standalone="no"?>
<!DOCTYPE svg PUBLIC "-//W3C//DTD SVG 20010904//EN"
 "http://www.w3.org/TR/2001/REC-SVG-20010904/DTD/svg10.dtd">
<svg version="1.0" xmlns="http://www.w3.org/2000/svg"
 width="300.000000pt" height="300.000000pt" viewBox="0 0 300.000000 300.000000"
 preserveAspectRatio="xMidYMid meet">
<metadata>
Created by potrace 1.10, written by Peter Selinger 2001-2011
</metadata>
<g transform="translate(0.000000,300.000000) scale(0.100000,-0.100000)"
fill="#000000" stroke="none">
<path d="M80 2898 c0 -57 4 -108 8 -115 4 -7 26 -20 47 -30 36 -16 83 -18 480
-21 l440 -3 17 -22 c10 -12 18 -29 18 -37 0 -17 87 -150 98 -150 4 0 22 -14
40 -31 18 -16 58 -42 90 -57 50 -24 72 -27 175 -30 117 -4 119 -3 190 31 97
46 166 110 211 196 20 38 42 72 49 74 9 4 9 6 -1 6 -7 1 -10 6 -7 11 4 6 153
10 414 10 549 0 541 -3 541 167 0 138 -18 135 -22 -4 l-3 -108 -30 -15 c-25
-13 -103 -15 -482 -18 -420 -3 -453 -4 -453 -20 0 -36 -52 -126 -105 -181 -80
-84 -151 -115 -277 -119 -119 -5 -172 11 -258 74 -71 52 -113 106 -141 186
l-22 58 -452 0 c-387 0 -458 2 -498 16 l-47 16 0 109 c0 66 -4 109 -10 109 -6
0 -10 -41 -10 -102z"/>
<path d="M1082 2894 c-34 -24 -28 -124 9 -124 3 0 4 11 1 25 -2 13 -1 36 2 50
5 21 12 26 34 23 15 -2 28 -10 29 -18 7 -57 15 -90 21 -90 4 0 8 8 9 18 1 9 5
31 9 49 5 26 1 37 -19 57 -30 30 -62 33 -95 10z"/>
<path d="M1865 2902 c-40 -8 -57 -34 -51 -77 3 -22 7 -46 8 -53 3 -25 17 3 20
42 4 46 28 67 56 50 13 -9 16 -23 14 -60 l-3 -49 20 25 c47 58 6 137 -64 122z"/>
<path d="M1182 2719 c51 -146 232 -251 377 -220 72 15 139 52 187 103 39 40
84 114 84 138 0 7 -108 10 -329 10 l-330 0 11 -31z m598 6 c0 -51 -100 -151
-179 -179 -73 -26 -169 -19 -236 18 -57 31 -136 112 -128 132 3 8 0 14 -6 14
-6 0 -11 5 -11 10 0 6 100 10 280 10 154 0 280 -2 280 -5z"/>
<path d="M1151 2302 c-14 -2 -35 -11 -48 -19 -21 -14 -25 -14 -42 1 -43 39
-72 16 -111 -91 -35 -96 -15 -136 46 -96 24 16 28 15 59 -2 27 -14 62 -18 176
-21 78 -1 152 2 166 7 25 9 63 -6 63 -27 0 -6 9 -19 21 -30 21 -19 21 -18 45
9 27 32 94 59 115 47 8 -6 20 -3 31 7 17 15 21 15 57 -2 26 -11 50 -15 68 -11
15 4 33 6 38 6 6 0 47 -2 92 -4 46 -1 86 -5 89 -9 12 -11 63 26 69 50 3 13 1
32 -5 43 -5 10 -10 30 -10 44 0 39 -41 62 -87 48 -26 -8 -42 -8 -56 0 -14 7
-30 7 -57 -2 -26 -9 -43 -9 -57 -2 -11 6 -49 8 -94 5 -73 -6 -94 -6 -154 -3
-16 1 -63 -1 -102 -4 -73 -5 -73 -5 -107 29 -34 34 -37 35 -108 32 -40 -1 -84
-4 -97 -5z m47 -50 c-17 -20 -40 5 -26 28 11 17 13 17 24 2 9 -12 9 -21 2 -30z
m-126 -62 c26 -64 32 -90 23 -90 -8 0 -17 9 -20 20 -5 16 -15 20 -51 20 -31 0
-44 -4 -44 -14 0 -7 -7 -19 -15 -26 -22 -18 -19 -3 16 94 18 47 37 86 44 86 6
0 28 -40 47 -90z m70 0 c2 -67 0 -90 -9 -90 -10 0 -13 25 -13 90 0 50 4 90 9
90 5 0 11 -41 13 -90z m198 74 c0 -12 -9 -15 -42 -12 -40 3 -43 1 -46 -25 -3
-26 -1 -27 38 -27 29 0 40 -4 38 -12 -3 -8 -19 -12 -41 -10 -35 3 -37 2 -37
-27 0 -30 1 -31 45 -31 25 0 45 -4 45 -10 0 -5 -25 -10 -55 -10 l-55 0 0 90 0
90 55 0 c43 0 55 -3 55 -16z m-140 -99 c0 -51 -3 -65 -15 -65 -12 0 -15 14
-15 65 0 51 3 65 15 65 12 0 15 -14 15 -65z m197 39 l19 -26 17 26 c10 14 25
26 33 26 13 0 10 -8 -11 -36 l-27 -36 28 -29 c25 -26 26 -29 8 -29 -10 0 -25
10 -33 22 l-14 22 -17 -22 c-10 -12 -26 -22 -36 -22 -15 0 -13 5 11 30 l28 29
-27 36 c-19 25 -23 35 -12 35 8 0 23 -12 33 -26z m201 10 c22 -15 30 -66 14
-90 -15 -23 -51 -35 -71 -24 -29 15 -31 13 -31 -30 0 -22 -4 -40 -10 -40 -6 0
-10 33 -10 80 0 67 3 83 20 100 24 24 57 26 88 4z m112 6 c0 -4 -12 -15 -26
-25 -23 -15 -26 -22 -21 -56 4 -29 2 -39 -9 -39 -11 0 -14 16 -14 63 l0 63 35
1 c19 1 35 -3 35 -7z m114 -12 c31 -43 21 -58 -35 -58 -36 0 -49 -4 -46 -12 2
-8 21 -13 46 -12 44 1 53 -9 21 -26 -26 -14 -67 -3 -85 23 -20 29 -19 49 6 81
26 33 71 35 93 4z m114 5 c2 -9 -5 -11 -27 -7 -42 9 -43 -20 -1 -35 41 -14 49
-39 21 -63 -28 -22 -41 -23 -67 -4 -25 19 -12 31 16 16 18 -10 25 -9 38 4 14
14 12 17 -20 31 -45 18 -52 29 -38 55 9 16 19 20 42 18 17 -2 33 -9 36 -15z
m110 0 c2 -9 -5 -11 -27 -7 -43 9 -42 -20 2 -32 25 -8 33 -16 35 -37 4 -35
-35 -56 -73 -39 -37 17 -31 34 9 27 48 -10 56 12 11 31 -41 17 -53 37 -34 60
14 18 70 15 77 -3z"/>
<path d="M1012 2211 c-16 -52 -16 -51 17 -51 l30 0 -16 45 c-8 25 -16 45 -17
45 -2 0 -8 -17 -14 -39z"/>
<path d="M1525 2190 c-37 -41 24 -97 63 -58 18 18 14 56 -7 68 -27 14 -35 13
-56 -10z"/>
<path d="M1750 2195 c-18 -21 -9 -27 36 -23 36 3 37 4 20 21 -21 21 -40 22
-56 2z"/>
<path d="M572 1748 c-8 -8 -64 -12 -176 -12 -96 -1 -169 -5 -175 -11 -12 -12
-55 -379 -47 -400 5 -13 42 -15 260 -15 l255 0 3 -32 c4 -40 21 -45 155 -47
114 -1 123 2 123 45 l0 34 53 0 c59 0 77 12 77 50 0 25 0 24 20 -7 21 -35 51
-47 115 -47 22 1 118 2 213 3 162 1 174 3 179 20 5 19 6 19 38 -1 37 -21 26
-21 395 -21 323 -1 339 0 355 13 19 16 19 74 0 94 -10 9 -15 34 -15 70 0 53 1
56 25 56 16 0 35 -11 50 -27 l24 -28 -22 -5 c-50 -13 -25 -125 34 -153 116
-55 268 -13 285 78 6 34 -18 105 -35 105 -19 0 -12 17 9 23 31 8 27 69 -7 107
-33 36 -111 53 -181 40 -39 -7 -42 -6 -42 16 0 12 -6 26 -12 31 -7 4 -71 9
-143 9 -86 1 -130 5 -133 13 -2 7 -35 11 -92 11 -95 0 -114 -9 -108 -52 3 -22
0 -23 -87 -29 -49 -3 -114 -1 -143 4 -30 4 -61 6 -70 2 -10 -4 -118 -6 -242
-5 -124 1 -246 1 -272 1 -41 -2 -47 1 -50 20 -2 16 -13 25 -38 32 -37 10 -231
4 -249 -7 -7 -5 -11 -71 -11 -195 l0 -187 -57 1 -58 1 -2 189 c-1 104 -4 197
-6 207 -5 16 -17 18 -94 18 -55 0 -94 -5 -101 -12z m168 -48 c0 -29 -1 -30
-50 -30 -49 0 -50 1 -50 30 0 29 1 30 50 30 49 0 50 -1 50 -30z m1480 0 c0
-29 -2 -30 -45 -30 -43 0 -45 1 -45 30 0 29 2 30 45 30 43 0 45 -1 45 -30z
m-1753 -202 l18 -158 -41 0 c-39 0 -43 2 -49 31 -6 25 -11 30 -33 27 -21 -2
-28 -9 -30 -30 -3 -26 -7 -28 -49 -28 -42 0 -45 2 -40 23 3 12 14 93 23 179
l18 157 76 3 c90 4 81 20 107 -204z m138 21 l0 -179 -47 0 -48 0 0 183 0 182
47 -3 48 -4 0 -179z m545 149 l0 -38 -45 0 c-44 0 -45 -1 -45 -31 0 -30 1 -31
43 -27 l42 3 3 -39 3 -38 -45 4 -46 3 0 -82 0 -83 -45 0 -45 0 0 183 0 182 90
0 90 0 0 -37z m1344 -32 c-7 -65 -8 -67 -33 -64 -22 3 -27 9 -33 47 -4 23 -10
51 -13 61 -5 16 1 19 37 22 24 2 44 2 46 2 2 -1 0 -32 -4 -68z m-129 34 c-5
-23 -3 -30 9 -30 11 0 16 -9 16 -30 0 -18 -5 -30 -13 -30 -17 0 -15 -182 2
-188 6 -2 11 -15 11 -28 0 -22 -4 -24 -50 -24 -66 0 -73 14 -68 141 2 74 0 99
-9 99 -8 0 -13 13 -13 30 0 18 5 30 13 30 9 0 12 10 9 30 l-4 30 52 0 52 0 -7
-30z m-1625 -175 l0 -155 -50 0 -50 0 0 155 0 155 50 0 50 0 0 -155z m619 140
c16 -8 31 -22 35 -30 3 -9 6 -73 6 -141 l0 -124 -45 0 c-35 0 -45 4 -45 17 0
15 -1 15 -18 0 -28 -25 -87 -22 -106 5 -20 29 -20 97 -1 126 9 13 39 28 70 38
54 15 62 25 49 58 -9 23 -34 20 -34 -4 0 -17 -7 -20 -50 -20 -27 0 -50 2 -50
4 0 22 27 69 44 76 34 14 115 11 145 -5z m168 -87 c10 -112 18 -105 28 25 l7
77 47 0 46 0 -30 -155 -30 -155 -55 0 -56 0 -27 140 c-15 78 -30 147 -34 155
-4 12 5 15 45 15 l50 0 9 -102z m354 73 c28 -29 29 -32 29 -131 0 -94 -2 -103
-25 -125 -21 -22 -33 -25 -90 -25 -57 0 -69 3 -90 25 -23 22 -25 31 -25 129 0
104 0 104 31 130 25 21 41 26 86 26 47 0 59 -4 84 -29z m159 13 c0 -14 1 -14
16 0 8 9 24 16 35 16 14 0 19 -7 19 -29 0 -26 -4 -30 -32 -33 l-33 -3 -3 -122
-3 -123 -47 0 -47 0 0 155 0 155 48 0 c36 0 47 -4 47 -16z m180 -139 l0 -155
-45 0 -45 0 0 155 0 155 45 0 45 0 0 -155z m504 133 c25 -22 39 -60 24 -65 -5
-2 -25 -3 -47 -3 -31 0 -40 4 -44 21 -6 23 -30 21 -35 -3 -2 -10 18 -29 56
-52 86 -52 104 -105 53 -157 -26 -26 -36 -29 -90 -29 -70 0 -105 24 -116 78
l-7 32 51 0 c47 0 50 -2 53 -27 4 -36 33 -38 33 -3 0 19 -14 34 -60 65 -53 37
-60 45 -63 79 -5 61 26 84 115 85 40 1 58 -4 77 -21z m-1594 -215 c0 -30 -2
-34 -15 -23 -24 20 -18 79 6 64 5 -3 9 -21 9 -41z m-190 -128 l0 -26 -87 3
c-83 3 -88 4 -91 26 -3 21 -1 22 87 22 91 0 91 0 91 -25z"/>
<path d="M357 1610 c-3 -19 -8 -63 -11 -97 -4 -56 -2 -63 14 -63 11 0 20 3 22
8 2 4 -1 48 -7 97 -9 75 -12 84 -18 55z"/>
<path d="M1270 1481 c-18 -35 -9 -91 15 -91 17 0 25 23 25 71 0 43 -21 54 -40
20z"/>
<path d="M1782 1591 c-9 -5 -12 -34 -10 -102 3 -86 5 -94 23 -94 18 0 20 8 23
91 3 93 -8 123 -36 105z"/>
</g>
</svg>
