<?xml version="1.0" standalone="no"?>
<!DOCTYPE svg PUBLIC "-//W3C//DTD SVG 20010904//EN"
 "http://www.w3.org/TR/2001/REC-SVG-20010904/DTD/svg10.dtd">
<svg version="1.0" xmlns="http://www.w3.org/2000/svg"
 width="300.000000pt" height="73.000000pt" viewBox="0 0 300.000000 73.000000"
 preserveAspectRatio="xMidYMid meet">
<metadata>
Created by potrace 1.10, written by Peter Selinger 2001-2011
</metadata>
<g transform="translate(0.000000,73.000000) scale(0.100000,-0.100000)"
fill="#000000" stroke="none">
<path d="M190 605 c0 0 -34 -92 -75 -204 -41 -112 -75 -206 -75 -208 0 -2 17
-3 37 -1 35 3 38 6 53 50 l15 48 82 0 81 0 17 -50 c16 -49 17 -50 57 -50 34 0
39 3 33 17 -4 10 -34 90 -66 178 -33 88 -64 172 -70 187 -9 21 -18 27 -50 30
-21 2 -39 3 -39 3z m65 -153 c13 -37 26 -75 30 -84 6 -16 0 -18 -55 -18 -44 0
-60 3 -58 13 18 63 54 164 57 161 3 -2 14 -35 26 -72z"/>
<path d="M440 398 l0 -208 35 0 35 0 0 208 0 207 -35 0 -35 0 0 -207z"/>
<path d="M570 585 c-16 -19 -4 -52 22 -61 30 -9 62 29 48 57 -13 22 -52 25
-70 4z"/>
<path d="M710 396 l0 -206 30 0 30 0 0 91 0 92 75 -7 75 -7 0 31 0 30 -75 0
-75 0 0 61 0 60 85 -3 85 -3 0 28 0 27 -99 0 c-55 0 -106 3 -115 6 -14 5 -16
-16 -16 -200z"/>
<path d="M2101 582 c-14 -26 13 -64 41 -60 29 4 46 33 32 56 -16 25 -60 28
-73 4z"/>
<path d="M2257 519 c6 -41 6 -42 -20 -35 -25 6 -27 4 -27 -24 0 -25 4 -30 25
-30 l25 0 -3 -101 c-2 -95 -1 -102 22 -120 25 -20 105 -27 116 -9 3 5 3 20 0
33 -5 19 -11 23 -32 19 -39 -7 -53 20 -53 105 l0 73 40 0 c37 0 40 2 40 28 0
26 -2 27 -41 24 l-42 -4 6 41 c5 41 5 41 -28 41 -33 0 -33 0 -28 -41z m48 -49
c4 -6 1 -17 -5 -26 -15 -18 -42 0 -33 22 6 16 29 19 38 4z"/>
<path d="M1004 471 c-44 -27 -48 -37 -22 -55 19 -13 24 -14 37 -2 9 8 30 17
48 21 27 5 37 2 58 -19 14 -15 23 -31 20 -36 -3 -6 -36 -10 -71 -10 -59 0 -68
-3 -95 -29 -39 -40 -39 -82 0 -122 37 -37 104 -41 145 -8 l26 20 0 -20 c0 -17
6 -21 31 -21 24 0 30 3 25 16 -3 9 -6 62 -6 119 0 95 -2 106 -23 131 -32 37
-125 46 -173 15z m136 -165 c0 -14 -7 -32 -16 -40 -38 -39 -104 -26 -104 20 0
29 26 42 83 43 33 1 37 -2 37 -23z"/>
<path d="M1220 479 c0 -5 25 -72 56 -149 55 -139 56 -140 88 -140 31 0 32 2
89 143 31 78 57 145 57 149 0 4 -14 7 -32 5 -31 -2 -32 -5 -71 -115 -22 -62
-41 -111 -43 -109 -1 1 -20 52 -42 112 -38 107 -39 110 -70 111 -18 1 -32 -2
-32 -7z"/>
<path d="M1582 470 c-95 -58 -96 -211 -1 -262 101 -54 229 16 229 127 0 120
-128 196 -228 135z m122 -51 c38 -30 49 -63 36 -109 -13 -49 -31 -63 -80 -63
-49 0 -77 23 -86 70 -12 65 25 112 97 122 4 1 18 -9 33 -20z"/>
<path d="M1850 338 l0 -148 35 0 35 0 0 100 c0 88 2 102 21 121 21 21 50 22
90 5 11 -5 19 1 28 21 11 23 10 29 -5 40 -32 23 -83 16 -115 -16 l-29 -29 0
27 c0 24 -4 28 -30 28 l-30 0 0 -149z"/>
<path d="M2110 338 l0 -148 30 0 30 0 0 148 0 147 -30 0 -30 0 0 -147z"/>
<path d="M2473 470 c-43 -26 -63 -68 -63 -132 0 -100 58 -154 157 -146 38 3
60 11 78 28 30 29 31 32 4 48 -18 11 -24 11 -40 -4 -29 -26 -83 -23 -114 6
-14 13 -25 31 -25 39 0 14 15 16 105 13 l105 -3 0 31 c0 109 -115 177 -207
120z m122 -55 c39 -38 32 -45 -50 -45 -46 0 -75 4 -75 10 0 21 49 60 75 60 14
0 37 -11 50 -25z"/>
<path d="M2764 480 c-28 -11 -54 -48 -54 -76 0 -37 35 -68 101 -89 71 -22 88
-47 45 -66 -30 -14 -71 -5 -93 20 -13 16 -20 17 -39 9 -32 -15 -30 -20 13 -58
34 -30 40 -32 95 -28 67 5 94 24 104 75 5 27 1 37 -24 62 -19 20 -45 33 -71
37 -56 9 -79 27 -65 51 17 28 60 28 87 1 19 -19 28 -22 46 -14 29 13 23 36
-18 63 -35 24 -88 29 -127 13z"/>
<path d="M570 334 l0 -145 31 3 31 3 1 143 2 142 -32 0 -33 0 0 -146z"/>
</g>
</svg>
